<svg width="70" height="26" viewBox="0 0 70 26" fill="none" xmlns="http://www.w3.org/2000/svg">
<path d="M1.496 12.5V4.1H5.312C6.224 4.1 7.028 4.276 7.724 4.628C8.42 4.972 8.964 5.456 9.356 6.08C9.748 6.704 9.944 7.444 9.944 8.3C9.944 9.148 9.748 9.888 9.356 10.52C8.964 11.144 8.42 11.632 7.724 11.984C7.028 12.328 6.224 12.5 5.312 12.5H1.496ZM3.44 10.904H5.216C5.776 10.904 6.26 10.8 6.668 10.592C7.084 10.376 7.404 10.072 7.628 9.68C7.86 9.288 7.976 8.828 7.976 8.3C7.976 7.764 7.86 7.304 7.628 6.92C7.404 6.528 7.084 6.228 6.668 6.02C6.26 5.804 5.776 5.696 5.216 5.696H3.44V10.904ZM10.1889 12.5L13.9329 4.1H15.8529L19.6089 12.5H17.5689L14.4969 5.084H15.2649L12.1809 12.5H10.1889ZM12.0609 10.7L12.5769 9.224H16.8969L17.4249 10.7H12.0609ZM20.4804 12.5V4.1H22.4244V12.5H20.4804ZM24.4179 12.5V4.1H26.3619V10.916H30.5739V12.5H24.4179ZM32.8809 12.5V9.068L33.3249 10.244L29.6289 4.1H31.6929L34.5249 8.816H33.3369L36.1809 4.1H38.0889L34.3929 10.244L34.8249 9.068V12.5H32.8809Z" fill="black"/>
<path d="M8.496 23V14.6H12.132C12.884 14.6 13.532 14.724 14.076 14.972C14.62 15.212 15.04 15.56 15.336 16.016C15.632 16.472 15.78 17.016 15.78 17.648C15.78 18.272 15.632 18.812 15.336 19.268C15.04 19.724 14.62 20.076 14.076 20.324C13.532 20.564 12.884 20.684 12.132 20.684H9.576L10.44 19.808V23H8.496ZM10.44 20.024L9.576 19.1H12.024C12.624 19.1 13.072 18.972 13.368 18.716C13.664 18.46 13.812 18.104 13.812 17.648C13.812 17.184 13.664 16.824 13.368 16.568C13.072 16.312 12.624 16.184 12.024 16.184H9.576L10.44 15.26V20.024ZM17.1679 23V14.6H19.1119V21.416H23.3239V23H17.1679ZM23.3529 23L27.0969 14.6H29.0169L32.7729 23H30.7329L27.6609 15.584H28.4289L25.3449 23H23.3529ZM25.2249 21.2L25.7409 19.724H30.0609L30.5889 21.2H25.2249ZM33.6444 23V14.6H35.2524L40.2084 20.648H39.4284V14.6H41.3484V23H39.7524L34.7844 16.952H35.5644V23H33.6444ZM43.3358 23V14.6H44.9438L49.8998 20.648H49.1198V14.6H51.0398V23H49.4438L44.4758 16.952H45.2558V23H43.3358ZM54.8153 17.984H58.8593V19.496H54.8153V17.984ZM54.9593 21.44H59.5312V23H53.0273V14.6H59.3753V16.16H54.9593V21.44ZM61.078 23V14.6H64.714C65.466 14.6 66.114 14.724 66.658 14.972C67.202 15.212 67.622 15.56 67.918 16.016C68.214 16.472 68.362 17.016 68.362 17.648C68.362 18.272 68.214 18.812 67.918 19.268C67.622 19.716 67.202 20.06 66.658 20.3C66.114 20.54 65.466 20.66 64.714 20.66H62.158L63.022 19.808V23H61.078ZM66.418 23L64.318 19.952H66.394L68.518 23H66.418ZM63.022 20.024L62.158 19.112H64.606C65.206 19.112 65.654 18.984 65.95 18.728C66.246 18.464 66.394 18.104 66.394 17.648C66.394 17.184 66.246 16.824 65.95 16.568C65.654 16.312 65.206 16.184 64.606 16.184H62.158L63.022 15.26V20.024Z" fill="black"/>
</svg>
